<?xml version="1.0" encoding="utf-8"?>
<!-- Generator: Adobe Illustrator 16.0.0, SVG Export Plug-In . SVG Version: 6.00 Build 0)  -->
<!DOCTYPE svg PUBLIC "-//W3C//DTD SVG 1.1//EN" "http://www.w3.org/Graphics/SVG/1.1/DTD/svg11.dtd">
<svg version="1.1" id="Layer_1" xmlns="http://www.w3.org/2000/svg" xmlns:xlink="http://www.w3.org/1999/xlink" x="0px" y="0px"
	 width="38px" height="34px" viewBox="0 0 38 34" enable-background="new 0 0 38 34" xml:space="preserve">
<g>
	<defs>
		<rect id="SVGID_1_" width="38" height="34"/>
	</defs>
	<clipPath id="SVGID_2_">
		<use xlink:href="#SVGID_1_"  overflow="visible"/>
	</clipPath>
	<path clip-path="url(#SVGID_2_)" d="M37.081,0H10.268C9.76,0,9.349,0.412,9.349,0.919s0.412,0.918,0.919,0.918h25.893v30.325
		H10.268c-0.508,0-0.919,0.412-0.919,0.919C9.349,33.589,9.76,34,10.268,34h26.813C37.588,34,38,33.589,38,33.081V0.919
		C38,0.412,37.588,0,37.081,0"/>
	<path clip-path="url(#SVGID_2_)" d="M14.003,22.583c-0.359,0.358-0.359,0.94,0,1.299c0.18,0.18,0.415,0.27,0.65,0.27
		c0.235,0,0.47-0.09,0.649-0.27l5.671-5.666c0.359-0.358,0.359-0.94,0-1.299l-5.671-5.667c-0.359-0.36-0.941-0.36-1.3,0
		c-0.359,0.358-0.359,0.94,0,1.299l4.101,4.098H0.919C0.412,16.647,0,17.059,0,17.566c0,0.507,0.412,0.919,0.919,0.919h17.185
		L14.003,22.583z"/>
</g>
</svg>
