<?xml version="1.0" encoding="utf-8"?>
<!-- Generator: Adobe Illustrator 16.0.0, SVG Export Plug-In . SVG Version: 6.00 Build 0)  -->
<!DOCTYPE svg PUBLIC "-//W3C//DTD SVG 1.1//EN" "http://www.w3.org/Graphics/SVG/1.1/DTD/svg11.dtd">
<svg version="1.1" id="Layer_1" xmlns="http://www.w3.org/2000/svg" xmlns:xlink="http://www.w3.org/1999/xlink" x="0px" y="0px"
	 width="114.889px" height="100.355px" viewBox="0 0 114.889 100.355" enable-background="new 0 0 114.889 100.355"
	 xml:space="preserve">
<g>
	<defs>
		<rect id="SVGID_1_" y="0.001" width="114.889" height="100.354"/>
	</defs>
	<clipPath id="SVGID_2_">
		<use xlink:href="#SVGID_1_"  overflow="visible"/>
	</clipPath>
	<path clip-path="url(#SVGID_2_)" fill="#FED308" d="M85.931,28.03c-3.434-1.375-4.425-2.208-4.425-3.71
		c0-1.203,0.91-2.607,3.479-2.607c2.271,0,4.013,0.895,4.029,0.903c0.183,0.098,0.389,0.15,0.591,0.15
		c0.498,0,0.937-0.3,1.119-0.767l0.624-1.594c0.217-0.581-0.112-1.088-0.532-1.268c-1.399-0.61-4.131-1.08-4.159-1.086
		c-0.045-0.006-0.198-0.039-0.198-0.218l-0.008-2.314c0-0.697-0.582-1.263-1.296-1.263h-1.119c-0.713,0-1.294,0.566-1.294,1.263
		l0.002,2.432c0,0.187-0.202,0.267-0.275,0.285c-3.449,0.822-5.605,3.348-5.605,6.535c0,3.973,3.284,5.769,6.83,7.116
		c2.836,1.113,3.991,2.241,3.991,3.898c0,1.8-1.638,3.058-3.983,3.058c-2.004,0-4.715-1.27-4.742-1.283
		c-0.174-0.083-0.356-0.123-0.547-0.123c-0.515,0-0.964,0.311-1.145,0.794l-0.596,1.615c-0.212,0.602,0.113,1.09,0.531,1.307
		c1.666,0.868,4.887,1.377,5.031,1.398c0.039,0.005,0.236,0.075,0.236,0.253v2.422c0,0.697,0.581,1.265,1.296,1.265h1.154
		c0.716,0,1.296-0.568,1.296-1.265v-2.548c0-0.239,0.178-0.259,0.215-0.269c3.673-0.825,5.937-3.514,5.937-6.888
		C92.367,32.053,90.44,29.813,85.931,28.03"/>
</g>
<g>
	<defs>
		<rect id="SVGID_3_" width="114.889" height="100.355"/>
	</defs>
	<clipPath id="SVGID_4_">
		<use xlink:href="#SVGID_3_"  overflow="visible"/>
	</clipPath>
	<path clip-path="url(#SVGID_4_)" fill="#FED308" d="M84.485,0C67.712,0,54.115,13.6,54.115,30.373
		c0,16.772,13.597,30.371,30.371,30.371c16.772,0,30.37-13.599,30.37-30.371C114.855,13.6,101.258,0,84.485,0 M84.485,53.705
		c-12.887,0-23.334-10.447-23.334-23.332c0-12.886,10.447-23.333,23.334-23.333s23.331,10.447,23.331,23.333
		C107.816,43.257,97.372,53.705,84.485,53.705"/>
	<path clip-path="url(#SVGID_4_)" d="M108.685,75.46c-6.459,3.565-15.34,6.861-24.199,8.25c-7.881,1.236-22.709-1.745-22.709-5.266
		c0-1.333,13.004,3.288,20.871,1.188c6.032-1.608,5.175-7.252,1.894-7.997c-3.261-0.738-22.372-7.739-30.534-7.981
		c-3.846-0.114-13.338,1.337-17.932,2.087c-1.574,0.256-2.56,0.227-2.658,1.732c-0.459,6.999-1.359,21.312-1.85,28.788
		c-0.011,0.156,0.209,2.281,1.962,0.787c1.919-1.636,4.609-3.449,7.099-2.886c3.906,0.887,37.69,7.076,42.35,5.992
		c6.665-1.549,25.537-12.732,29.155-16.208C117.741,78.558,113.383,72.869,108.685,75.46"/>
	<path clip-path="url(#SVGID_4_)" d="M24.095,65.468L6.396,64.595c-1.367-0.066-2.763,0.963-3.103,2.287L0.077,96.101
		c-0.34,1.325,0.501,2.452,1.868,2.506l19.614-0.002c1.368,0.053,2.571-1.021,2.677-2.385l2.152-28.15
		C26.493,66.706,25.46,65.536,24.095,65.468 M13.674,94.734c-2.703,0-4.894-2.19-4.894-4.893c0-2.704,2.191-4.895,4.894-4.895
		c2.701,0,4.894,2.19,4.894,4.895C18.568,92.543,16.377,94.734,13.674,94.734"/>
</g>
</svg>
