<?xml version="1.0" encoding="utf-8"?>
<!-- Generator: Adobe Illustrator 16.0.0, SVG Export Plug-In . SVG Version: 6.00 Build 0)  -->
<!DOCTYPE svg PUBLIC "-//W3C//DTD SVG 1.1//EN" "http://www.w3.org/Graphics/SVG/1.1/DTD/svg11.dtd">
<svg version="1.1" id="Layer_1" xmlns="http://www.w3.org/2000/svg" xmlns:xlink="http://www.w3.org/1999/xlink" x="0px" y="0px"
	 width="82px" height="55.001px" viewBox="0 0 82 55.001" enable-background="new 0 0 82 55.001" xml:space="preserve">
<g>
	<defs>
		<rect id="SVGID_1_" y="0.001" width="82" height="55"/>
	</defs>
	<clipPath id="SVGID_2_">
		<use xlink:href="#SVGID_1_"  overflow="visible"/>
	</clipPath>
	<path clip-path="url(#SVGID_2_)" fill="#FED308" d="M61.332,15.362c-2.451-0.754-3.158-1.21-3.158-2.033
		c0-0.66,0.649-1.429,2.482-1.429c1.62,0,2.864,0.491,2.876,0.495c0.13,0.054,0.277,0.082,0.422,0.082
		c0.355,0,0.668-0.164,0.799-0.42l0.445-0.874c0.154-0.318-0.08-0.596-0.38-0.695c-0.999-0.334-2.948-0.592-2.969-0.595
		c-0.032-0.003-0.142-0.021-0.142-0.12l-0.006-1.268c0-0.382-0.415-0.692-0.925-0.692h-0.799c-0.509,0-0.923,0.311-0.923,0.692
		l0.001,1.333c0,0.103-0.145,0.146-0.196,0.156c-2.462,0.451-4.001,1.835-4.001,3.582c0,2.178,2.344,3.162,4.875,3.9
		c2.023,0.61,2.849,1.228,2.849,2.136c0,0.986-1.169,1.676-2.844,1.676c-1.43,0-3.364-0.696-3.384-0.704
		c-0.124-0.045-0.255-0.067-0.391-0.067c-0.367,0-0.688,0.17-0.817,0.435l-0.425,0.885c-0.151,0.33,0.081,0.598,0.379,0.716
		c1.189,0.476,3.488,0.755,3.591,0.767c0.028,0.002,0.169,0.041,0.169,0.138v1.328c0,0.382,0.415,0.693,0.925,0.693h0.824
		c0.511,0,0.925-0.312,0.925-0.693V23.39c0-0.131,0.127-0.142,0.153-0.147c2.621-0.452,4.237-1.926,4.237-3.775
		C65.926,17.567,64.551,16.339,61.332,15.362"/>
</g>
<g>
	<defs>
		<rect id="SVGID_3_" width="82" height="55"/>
	</defs>
	<clipPath id="SVGID_4_">
		<use xlink:href="#SVGID_3_"  overflow="visible"/>
	</clipPath>
	<path clip-path="url(#SVGID_4_)" fill="#FED308" d="M60.3,0C48.328,0,38.624,7.454,38.624,16.646
		c0,9.192,9.705,16.645,21.676,16.645s21.677-7.453,21.677-16.645C81.977,7.454,72.271,0,60.3,0 M60.3,29.434
		c-9.197,0-16.654-5.726-16.654-12.788c0-7.063,7.457-12.788,16.654-12.788c9.198,0,16.652,5.725,16.652,12.788
		C76.952,23.708,69.498,29.434,60.3,29.434"/>
	<path clip-path="url(#SVGID_4_)" d="M77.572,41.356c-4.61,1.954-10.949,3.761-17.272,4.521c-5.625,0.678-16.208-0.956-16.208-2.886
		c0-0.73,9.281,1.802,14.896,0.651c4.306-0.882,3.693-3.975,1.352-4.383c-2.327-0.404-15.968-4.241-21.793-4.374
		c-2.745-0.063-9.52,0.732-12.799,1.144c-1.123,0.141-1.827,0.124-1.897,0.949c-0.328,3.836-0.97,11.68-1.32,15.777
		c-0.008,0.086,0.149,1.251,1.4,0.432c1.37-0.896,3.29-1.891,5.067-1.581c2.788,0.485,26.9,3.878,30.227,3.283
		c4.757-0.849,18.227-6.978,20.81-8.883C84.036,43.055,80.925,39.937,77.572,41.356"/>
	<path clip-path="url(#SVGID_4_)" d="M17.197,35.881L4.564,35.402c-0.976-0.037-1.972,0.527-2.214,1.253L0.055,52.669
		c-0.243,0.727,0.357,1.344,1.333,1.373l14-0.001c0.976,0.029,1.835-0.56,1.911-1.307l1.536-15.428
		C18.909,36.559,18.172,35.917,17.197,35.881 M9.76,51.92c-1.929,0-3.493-1.201-3.493-2.682c0-1.482,1.564-2.683,3.493-2.683
		c1.928,0,3.493,1.2,3.493,2.683C13.253,50.719,11.689,51.92,9.76,51.92"/>
</g>
</svg>
