<?xml version="1.0" encoding="utf-8"?>
<svg version="1.1" id="Shape_3_1_" xmlns="http://www.w3.org/2000/svg" xmlns:xlink="http://www.w3.org/1999/xlink" x="0px" y="0px"
	 width="164px" height="22px" viewBox="0 0 164 22" enable-background="new 0 0 164 22" xml:space="preserve">
<g id="Shape_3">
	<g>
		<path fill-rule="evenodd" clip-rule="evenodd" d="M75.444,13.973l-4.268-8.531c-0.075-0.148-0.261-0.148-0.335,0.001
			c-0.807,1.606-1.269,3.471-1.269,5.462c0,1.129,0.149,2.221,0.426,3.247c0.025,0.093,0.1,0.155,0.185,0.155h5.094
			C75.426,14.307,75.519,14.122,75.444,13.973z M74.599,8.856c0.075,0.149,0.261,0.149,0.335,0l4.255-8.522
			C79.263,0.187,79.17,0,79.022,0H79.02c-2.744,0-5.214,1.35-6.939,3.506c-0.058,0.071-0.068,0.177-0.025,0.263L74.599,8.856z
			 M87.857,7.51h-5.092c-0.149,0-0.242,0.186-0.168,0.334l4.266,8.522c0.075,0.147,0.261,0.147,0.335-0.001
			c0.806-1.605,1.269-3.472,1.269-5.46c0-1.128-0.148-2.215-0.425-3.238C88.018,7.573,87.942,7.51,87.857,7.51z M78.507,5.797
			l8.532-0.002c0.148,0,0.241-0.186,0.168-0.333c-1.3-2.598-3.502-4.52-6.111-5.196c-0.083-0.021-0.168,0.021-0.21,0.106
			l-2.546,5.091C78.265,5.611,78.357,5.797,78.507,5.797z M79.521,16.012l-8.518,0.011c-0.148,0-0.242,0.186-0.168,0.333
			c1.299,2.592,3.494,4.51,6.097,5.187c0.083,0.021,0.169-0.021,0.211-0.106l2.545-5.089C79.763,16.198,79.67,16.012,79.521,16.012z
			 M83.44,12.95c-0.075-0.148-0.261-0.148-0.335,0l-4.266,8.524c-0.074,0.147,0.018,0.334,0.166,0.334h0.014
			c2.744,0,5.214-1.35,6.939-3.506c0.058-0.072,0.067-0.179,0.026-0.264L83.44,12.95z M5.949,0.72H0.23C0.128,0.72,0,0.898,0,1.104
			V21.35c0,0.118,0.102,0.266,0.23,0.266h2.821c0.102,0,0.23-0.147,0.23-0.266v-3.582c0-1.392-0.026-2.841-0.102-3.877
			c0.641,0.06,1.486,0.09,2.486,0.09c4.437,0,6.847-2.576,6.847-6.63C12.513,3.77,10.409,0.72,5.949,0.72z M5.333,11.257
			c-0.641,0-1.462,0-2.128,0.059c0.051-1.035,0.077-2.781,0.077-4.055c0-1.094-0.026-2.869-0.077-3.847
			C4,3.472,4.845,3.503,5.692,3.503c2.435,0,3.41,1.628,3.41,3.877C9.103,10.073,7.821,11.257,5.333,11.257z M30.162,0.72h-2.795
			c-0.128,0-0.231,0.149-0.231,0.297v4.35c0,1.244,0,2.516,0.051,3.698c-0.794-0.059-1.641-0.087-2.564-0.087h-3.872
			c-0.923,0-1.794,0.028-2.59,0.087c0.051-1.183,0.077-2.455,0.077-3.698v-4.35c0-0.148-0.128-0.297-0.231-0.297h-2.82
			c-0.128,0-0.231,0.149-0.231,0.297V21.35c0,0.118,0.103,0.266,0.231,0.266h2.82c0.103,0,0.231-0.147,0.231-0.266v-5.179
			c0-1.393-0.026-2.813-0.077-4.145c1.026,0.059,1.667,0.059,2.539,0.059h3.974c0.872,0,1.488,0,2.513-0.059
			c-0.051,1.332-0.051,2.752-0.051,4.145v5.179c0,0.118,0.103,0.266,0.231,0.266h2.795c0.102,0,0.23-0.147,0.23-0.266V1.018
			C30.393,0.87,30.264,0.72,30.162,0.72z M42.66,0.04c-4.95,0-9.231,4.173-9.231,10.802C33.428,17.62,37.557,22,42.66,22
			c5.333,0,9.229-4.47,9.229-11.158C51.889,4.094,47.583,0.04,42.66,0.04z M42.66,18.952c-3.641,0-5.617-3.257-5.617-8.11
			c0-5.296,2.308-7.753,5.641-7.753c3.282,0,5.59,2.485,5.59,7.753C48.274,15.727,46.428,18.952,42.66,18.952z M68.825,0.72H53.542
			c-0.102,0-0.153,0.089-0.179,0.267L53.03,3.532C53.004,3.68,53.081,3.77,53.209,3.77c1.18,0,2.077-0.06,3.256-0.06
			c1.025,0,2.026-0.029,3.052-0.119c-0.052,1.036-0.077,2.162-0.077,3.256V21.35c0,0.118,0.102,0.266,0.23,0.266h2.794
			c0.103,0,0.231-0.147,0.231-0.266V6.906c0-1.094-0.025-2.219-0.076-3.315c1.127,0.089,2.23,0.119,3.358,0.119
			c0.897,0,1.975,0.06,2.847,0.06c0.127,0,0.179-0.089,0.179-0.208V0.957C69.003,0.81,68.952,0.72,68.825,0.72z M99.355,10.369
			c2.05-0.533,3.923-2.19,3.923-4.706c0-2.338-1.333-4.943-6.001-4.943h-6.205c-0.128,0-0.23,0.149-0.23,0.297V21.35
			c0,0.118,0.103,0.266,0.23,0.266h7.257c3.82,0,6.051-2.131,6.051-5.534C104.38,12.854,101.996,10.606,99.355,10.369z
			 M94.021,3.384c0.794,0.06,1.846,0.088,2.615,0.088c2.309,0,3.282,0.978,3.282,2.96c0,1.806-1.052,3.02-3.666,3.02
			c-0.77,0-1.539,0.028-2.231,0.118c0.078-0.976,0.102-2.101,0.102-3.107S94.1,4.45,94.021,3.384z M97.74,18.834
			c-1.206,0-2.565,0.029-3.719,0.089c0.078-1.185,0.102-2.339,0.102-3.522c0-1.243-0.023-2.427-0.102-3.521
			c0.872,0.059,1.975,0.089,2.924,0.089c2.896,0,4.075,1.42,4.075,3.581C101.021,17.738,99.996,18.834,97.74,18.834z M115.492,0.04
			c-4.949,0-9.23,4.173-9.23,10.802c0,6.778,4.128,11.158,9.23,11.158c5.334,0,9.23-4.47,9.23-11.158
			C124.723,4.094,120.415,0.04,115.492,0.04z M115.492,18.952c-3.641,0-5.616-3.257-5.616-8.11c0-5.296,2.309-7.753,5.641-7.753
			c3.282,0,5.59,2.485,5.59,7.753C121.106,15.727,119.26,18.952,115.492,18.952z M136.041,0.04c-4.949,0-9.231,4.173-9.231,10.802
			c0,6.778,4.129,11.158,9.231,11.158c5.333,0,9.23-4.47,9.23-11.158C145.271,4.094,140.964,0.04,136.041,0.04z M136.041,18.952
			c-3.641,0-5.615-3.257-5.615-8.11c0-5.296,2.307-7.753,5.641-7.753c3.282,0,5.59,2.485,5.59,7.753
			C141.656,15.727,139.81,18.952,136.041,18.952z M163.795,20.698c-0.769-0.504-3.256-3.463-5.359-6.186
			c-1.742-2.22-3.205-4.055-3.718-4.292c0.564-0.385,1.821-1.865,3.154-3.493c2.255-2.87,3.999-4.942,4.666-5.357
			c0.076-0.059,0.128-0.178,0.128-0.326c0-0.176-0.077-0.326-0.205-0.326h-3.282c-0.152,0-0.281,0.089-0.41,0.236
			c-1.153,1.392-2.384,3.108-3.409,4.5c-1.769,2.457-3.051,3.965-3.487,3.965h-0.488c0.052-1.006,0.077-2.278,0.077-3.521V1.018
			c0-0.148-0.128-0.297-0.23-0.297h-2.82c-0.128,0-0.231,0.149-0.231,0.297V21.35c0,0.118,0.104,0.266,0.231,0.266h2.82
			c0.103,0,0.23-0.147,0.23-0.266v-5.654c0-1.39-0.025-2.869-0.102-3.936h0.513c0.563,0,1.974,1.628,3.769,4.204
			c1.282,1.834,2.795,3.848,4.154,5.414c0.129,0.119,0.309,0.237,0.461,0.237h3.514c0.128,0,0.23-0.147,0.23-0.474
			C164,20.935,163.948,20.787,163.795,20.698z"/>
	</g>
</g>
</svg>
