<?xml version="1.0" encoding="utf-8"?>
<!-- Generator: Adobe Illustrator 16.0.0, SVG Export Plug-In . SVG Version: 6.00 Build 0)  -->
<!DOCTYPE svg PUBLIC "-//W3C//DTD SVG 1.1//EN" "http://www.w3.org/Graphics/SVG/1.1/DTD/svg11.dtd">
<svg version="1.1" id="Layer_1" xmlns="http://www.w3.org/2000/svg" xmlns:xlink="http://www.w3.org/1999/xlink" x="0px" y="0px"
	 width="53px" height="57px" viewBox="0 0 53 57" enable-background="new 0 0 53 57" xml:space="preserve">
<g>
	<defs>
		<rect id="SVGID_1_" width="53" height="57"/>
	</defs>
	<clipPath id="SVGID_2_">
		<use xlink:href="#SVGID_1_"  overflow="visible"/>
	</clipPath>
	<path clip-path="url(#SVGID_2_)" d="M21.137,43.965c-3.597,1.157-5.55,4.938-4.364,8.442c1.188,3.506,5.064,5.411,8.661,4.254
		c3.596-1.156,5.549-4.937,4.363-8.442C28.611,44.713,24.733,42.809,21.137,43.965 M24.359,53.488
		c-1.798,0.578-3.737-0.374-4.33-2.127c-0.593-1.753,0.384-3.644,2.182-4.221c1.798-0.579,3.737,0.373,4.33,2.127
		C27.135,51.019,26.158,52.909,24.359,53.488"/>
	<path clip-path="url(#SVGID_2_)" fill="#FED308" d="M28.01,40.264c0.151,0.445,0.645,0.688,1.103,0.541l22.379-7.198
		c0.458-0.147,0.707-0.628,0.556-1.074l-7.11-21.007c-0.15-0.447-0.645-0.689-1.102-0.542l-22.38,7.198
		c-0.458,0.147-0.707,0.629-0.556,1.075L28.01,40.264z M34.356,19.641l7.62,4.087l-1.272,2.259L37.41,24.22l2.831,8.365
		l-2.711,0.872l-2.832-8.367l-1.568,3.333l-2.401-1.078L34.356,19.641z"/>
	<path clip-path="url(#SVGID_2_)" d="M52.896,39.126c-0.302-0.893-1.289-1.377-2.205-1.083L29.748,44.78
		c0.743,0.822,1.332,1.801,1.707,2.906c0.013,0.039,0.021,0.078,0.033,0.118l20.298-6.527
		C52.702,40.982,53.199,40.019,52.896,39.126"/>
	<path clip-path="url(#SVGID_2_)" d="M25.467,42.209L12.684,4.444c-1.124-3.32-4.809-5.131-8.216-4.036
		c-3.407,1.096-5.263,4.688-4.14,8.009C0.63,9.31,1.617,9.795,2.533,9.5c0.916-0.295,1.413-1.257,1.111-2.149
		c-0.521-1.539,0.34-3.203,1.917-3.711C7.14,3.133,8.847,3.972,9.368,5.51l12.376,36.563C23.008,41.847,24.275,41.904,25.467,42.209
		"/>
</g>
</svg>
